<?xml version="1.0" standalone="no"?>
<!DOCTYPE svg PUBLIC "-//W3C//DTD SVG 20010904//EN"
 "http://www.w3.org/TR/2001/REC-SVG-20010904/DTD/svg10.dtd">
<svg version="1.0" xmlns="http://www.w3.org/2000/svg"
 width="29.000000pt" height="32.000000pt" viewBox="0 0 29.000000 32.000000"
 preserveAspectRatio="xMidYMid meet">

<g transform="translate(0.000000,32.000000) scale(0.100000,-0.100000)"
fill="#000000" stroke="none">
<path d="M140 240 c0 -5 5 -10 11 -10 5 0 7 5 4 10 -3 6 -8 10 -11 10 -2 0 -4
-4 -4 -10z"/>
<path d="M110 230 c0 -5 5 -10 10 -10 6 0 10 5 10 10 0 6 -4 10 -10 10 -5 0
-10 -4 -10 -10z"/>
<path d="M200 200 c0 -6 7 -10 15 -10 8 0 15 2 15 4 0 2 -7 6 -15 10 -8 3 -15
1 -15 -4z"/>
<path d="M65 190 c-3 -5 -2 -10 4 -10 5 0 13 5 16 10 3 6 2 10 -4 10 -5 0 -13
-4 -16 -10z"/>
<path d="M124 182 c11 -12 19 -13 27 -5 7 7 3 12 -16 15 -25 5 -25 4 -11 -10z"/>
<path d="M162 163 c-11 -18 -77 -29 -87 -13 -9 14 -45 12 -46 -2 -1 -7 0 -23
0 -35 1 -11 -3 -24 -8 -28 -6 -3 -11 -20 -11 -37 l0 -31 51 5 c28 3 68 2 88
-3 21 -5 40 -4 45 1 6 6 27 10 48 10 32 0 38 3 38 20 0 12 -7 31 -16 45 -13
19 -13 27 -2 44 10 16 10 23 1 32 -10 10 -15 7 -22 -12 -5 -13 -10 -19 -10
-13 -1 9 -42 34 -56 34 -2 0 -8 -7 -13 -17z m15 -40 c-3 -10 -5 -2 -5 17 0 19
2 27 5 18 2 -10 2 -26 0 -35z m31 -8 c-3 -3 -9 2 -12 12 -6 14 -5 15 5 6 7 -7
10 -15 7 -18z m-93 -28 c17 -2 7 -4 -22 -3 -47 0 -51 2 -41 19 8 16 11 17 21
3 7 -8 26 -17 42 -19z m115 -3 c0 -2 -9 -4 -20 -4 -11 0 -20 4 -20 9 0 5 9 7
20 4 11 -3 20 -7 20 -9z"/>
</g>
</svg>
